运行 java测试 案例 com.example.demo.FFmpegJNITest
sbc run -t -v /home/user/JAVA-TEST/java-rtf-test/ffmpeg/files:/tmp@/home/user/JAVA-TEST/java-rtf-test/rmi.sh:/opt/app/lib/logback-classic-1.2.3.jar@/home/user/JAVA-TEST/java-rtf-test/test-classes/com:/opt/app/test-classes/com -p docker.bplatform.demo/java_rtf_lx:2.1 docker.bplatform.demo/java_rtf_test_all:1.0  /opt/app/runTest com.example.demo.FFmpegJNITest encode_video /tmp/02.yuv /tmp/02.avi
TEST_DIR=/opt/app
/usr/lib/jvm/java-11-openjdk-mips64el/bin/java -classpath /opt/app/lib/*:/opt/app/classes:/opt/app/test-classes com.example.demo.FFmpegJNITest encode_video /tmp/02.yuv /tmp/02.avi
OpenJDK 64-Bit Zero VM warning: You have loaded library /usr/lib/libffmpeg-jni.so which might have disabled stack guard. The VM will try to fix the stack guard now.
It's highly recommended that you fix the library with 'execstack -c <libfile>', or link it with '-z noexecstack'.
视频编码
Output #0, avi, to '/tmp/02.avi':
    Stream #0:0: Video: mpeg4, yuv420p, 640x480, q=2-31, 400 kb/s, 25 tbn
pts:0 pts_time:0 dts:0 dts_time:0 duration:0 duration_time:0 stream_index:0
pts:1 pts_time:0.04 dts:1 dts_time:0.04 duration:0 duration_time:0 stream_index:0
pts:2 pts_time:0.08 dts:2 dts_time:0.08 duration:0 duration_time:0 stream_index:0
pts:3 pts_time:0.12 dts:3 dts_time:0.12 duration:0 duration_time:0 stream_index:0
pts:4 pts_time:0.16 dts:4 dts_time:0.16 duration:0 duration_time:0 stream_index:0
pts:5 pts_time:0.2 dts:5 dts_time:0.2 duration:0 duration_time:0 stream_index:0
pts:6 pts_time:0.24 dts:6 dts_time:0.24 duration:0 duration_time:0 stream_index:0
pts:7 pts_time:0.28 dts:7 dts_time:0.28 duration:0 duration_time:0 stream_index:0
pts:8 pts_time:0.32 dts:8 dts_time:0.32 duration:0 duration_time:0 stream_index:0
pts:9 pts_time:0.36 dts:9 dts_time:0.36 duration:0 duration_time:0 stream_index:0
pts:10 pts_time:0.4 dts:10 dts_time:0.4 duration:0 duration_time:0 stream_index:0
pts:11 pts_time:0.44 dts:11 dts_time:0.44 duration:0 duration_time:0 stream_index:0
pts:12 pts_time:0.48 dts:12 dts_time:0.48 duration:0 duration_time:0 stream_index:0
pts:13 pts_time:0.52 dts:13 dts_time:0.52 duration:0 duration_time:0 stream_index:0
pts:14 pts_time:0.56 dts:14 dts_time:0.56 duration:0 duration_time:0 stream_index:0
pts:15 pts_time:0.6 dts:15 dts_time:0.6 duration:0 duration_time:0 stream_index:0
pts:16 pts_time:0.64 dts:16 dts_time:0.64 duration:0 duration_time:0 stream_index:0
pts:17 pts_time:0.68 dts:17 dts_time:0.68 duration:0 duration_time:0 stream_index:0
pts:18 pts_time:0.72 dts:18 dts_time:0.72 duration:0 duration_time:0 stream_index:0
pts:19 pts_time:0.76 dts:19 dts_time:0.76 duration:0 duration_time:0 stream_index:0
pts:20 pts_time:0.8 dts:20 dts_time:0.8 duration:0 duration_time:0 stream_index:0
pts:21 pts_time:0.84 dts:21 dts_time:0.84 duration:0 duration_time:0 stream_index:0
pts:22 pts_time:0.88 dts:22 dts_time:0.88 duration:0 duration_time:0 stream_index:0
pts:23 pts_time:0.92 dts:23 dts_time:0.92 duration:0 duration_time:0 stream_index:0
pts:24 pts_time:0.96 dts:24 dts_time:0.96 duration:0 duration_time:0 stream_index:0
pts:25 pts_time:1 dts:25 dts_time:1 duration:0 duration_time:0 stream_index:0
pts:26 pts_time:1.04 dts:26 dts_time:1.04 duration:0 duration_time:0 stream_index:0
pts:27 pts_time:1.08 dts:27 dts_time:1.08 duration:0 duration_time:0 stream_index:0
pts:28 pts_time:1.12 dts:28 dts_time:1.12 duration:0 duration_time:0 stream_index:0
pts:29 pts_time:1.16 dts:29 dts_time:1.16 duration:0 duration_time:0 stream_index:0
pts:30 pts_time:1.2 dts:30 dts_time:1.2 duration:0 duration_time:0 stream_index:0
pts:31 pts_time:1.24 dts:31 dts_time:1.24 duration:0 duration_time:0 stream_index:0
pts:32 pts_time:1.28 dts:32 dts_time:1.28 duration:0 duration_time:0 stream_index:0
pts:33 pts_time:1.32 dts:33 dts_time:1.32 duration:0 duration_time:0 stream_index:0
pts:34 pts_time:1.36 dts:34 dts_time:1.36 duration:0 duration_time:0 stream_index:0
pts:35 pts_time:1.4 dts:35 dts_time:1.4 duration:0 duration_time:0 stream_index:0
pts:36 pts_time:1.44 dts:36 dts_time:1.44 duration:0 duration_time:0 stream_index:0
pts:37 pts_time:1.48 dts:37 dts_time:1.48 duration:0 duration_time:0 stream_index:0
pts:38 pts_time:1.52 dts:38 dts_time:1.52 duration:0 duration_time:0 stream_index:0
pts:39 pts_time:1.56 dts:39 dts_time:1.56 duration:0 duration_time:0 stream_index:0
pts:40 pts_time:1.6 dts:40 dts_time:1.6 duration:0 duration_time:0 stream_index:0
pts:41 pts_time:1.64 dts:41 dts_time:1.64 duration:0 duration_time:0 stream_index:0
pts:42 pts_time:1.68 dts:42 dts_time:1.68 duration:0 duration_time:0 stream_index:0
pts:43 pts_time:1.72 dts:43 dts_time:1.72 duration:0 duration_time:0 stream_index:0
pts:44 pts_time:1.76 dts:44 dts_time:1.76 duration:0 duration_time:0 stream_index:0
pts:45 pts_time:1.8 dts:45 dts_time:1.8 duration:0 duration_time:0 stream_index:0
pts:46 pts_time:1.84 dts:46 dts_time:1.84 duration:0 duration_time:0 stream_index:0
pts:47 pts_time:1.88 dts:47 dts_time:1.88 duration:0 duration_time:0 stream_index:0
pts:48 pts_time:1.92 dts:48 dts_time:1.92 duration:0 duration_time:0 stream_index:0
pts:49 pts_time:1.96 dts:49 dts_time:1.96 duration:0 duration_time:0 stream_index:0
pts:50 pts_time:2 dts:50 dts_time:2 duration:0 duration_time:0 stream_index:0
pts:51 pts_time:2.04 dts:51 dts_time:2.04 duration:0 duration_time:0 stream_index:0
pts:52 pts_time:2.08 dts:52 dts_time:2.08 duration:0 duration_time:0 stream_index:0
pts:53 pts_time:2.12 dts:53 dts_time:2.12 duration:0 duration_time:0 stream_index:0
pts:54 pts_time:2.16 dts:54 dts_time:2.16 duration:0 duration_time:0 stream_index:0
pts:55 pts_time:2.2 dts:55 dts_time:2.2 duration:0 duration_time:0 stream_index:0
pts:56 pts_time:2.24 dts:56 dts_time:2.24 duration:0 duration_time:0 stream_index:0
pts:57 pts_time:2.28 dts:57 dts_time:2.28 duration:0 duration_time:0 stream_index:0
pts:58 pts_time:2.32 dts:58 dts_time:2.32 duration:0 duration_time:0 stream_index:0
pts:59 pts_time:2.36 dts:59 dts_time:2.36 duration:0 duration_time:0 stream_index:0
pts:60 pts_time:2.4 dts:60 dts_time:2.4 duration:0 duration_time:0 stream_index:0
pts:61 pts_time:2.44 dts:61 dts_time:2.44 duration:0 duration_time:0 stream_index:0
pts:62 pts_time:2.48 dts:62 dts_time:2.48 duration:0 duration_time:0 stream_index:0
pts:63 pts_time:2.52 dts:63 dts_time:2.52 duration:0 duration_time:0 stream_index:0
pts:64 pts_time:2.56 dts:64 dts_time:2.56 duration:0 duration_time:0 stream_index:0
pts:65 pts_time:2.6 dts:65 dts_time:2.6 duration:0 duration_time:0 stream_index:0
pts:66 pts_time:2.64 dts:66 dts_time:2.64 duration:0 duration_time:0 stream_index:0
pts:67 pts_time:2.68 dts:67 dts_time:2.68 duration:0 duration_time:0 stream_index:0
pts:68 pts_time:2.72 dts:68 dts_time:2.72 duration:0 duration_time:0 stream_index:0
pts:69 pts_time:2.76 dts:69 dts_time:2.76 duration:0 duration_time:0 stream_index:0
pts:70 pts_time:2.8 dts:70 dts_time:2.8 duration:0 duration_time:0 stream_index:0
pts:71 pts_time:2.84 dts:71 dts_time:2.84 duration:0 duration_time:0 stream_index:0
pts:72 pts_time:2.88 dts:72 dts_time:2.88 duration:0 duration_time:0 stream_index:0
pts:73 pts_time:2.92 dts:73 dts_time:2.92 duration:0 duration_time:0 stream_index:0
pts:74 pts_time:2.96 dts:74 dts_time:2.96 duration:0 duration_time:0 stream_index:0
pts:75 pts_time:3 dts:75 dts_time:3 duration:0 duration_time:0 stream_index:0
pts:76 pts_time:3.04 dts:76 dts_time:3.04 duration:0 duration_time:0 stream_index:0
pts:77 pts_time:3.08 dts:77 dts_time:3.08 duration:0 duration_time:0 stream_index:0
pts:78 pts_time:3.12 dts:78 dts_time:3.12 duration:0 duration_time:0 stream_index:0
pts:79 pts_time:3.16 dts:79 dts_time:3.16 duration:0 duration_time:0 stream_index:0
pts:80 pts_time:3.2 dts:80 dts_time:3.2 duration:0 duration_time:0 stream_index:0
pts:81 pts_time:3.24 dts:81 dts_time:3.24 duration:0 duration_time:0 stream_index:0
pts:82 pts_time:3.28 dts:82 dts_time:3.28 duration:0 duration_time:0 stream_index:0
pts:83 pts_time:3.32 dts:83 dts_time:3.32 duration:0 duration_time:0 stream_index:0
pts:84 pts_time:3.36 dts:84 dts_time:3.36 duration:0 duration_time:0 stream_index:0
pts:85 pts_time:3.4 dts:85 dts_time:3.4 duration:0 duration_time:0 stream_index:0
pts:86 pts_time:3.44 dts:86 dts_time:3.44 duration:0 duration_time:0 stream_index:0
pts:87 pts_time:3.48 dts:87 dts_time:3.48 duration:0 duration_time:0 stream_index:0
pts:88 pts_time:3.52 dts:88 dts_time:3.52 duration:0 duration_time:0 stream_index:0
pts:89 pts_time:3.56 dts:89 dts_time:3.56 duration:0 duration_time:0 stream_index:0
pts:90 pts_time:3.6 dts:90 dts_time:3.6 duration:0 duration_time:0 stream_index:0
pts:91 pts_time:3.64 dts:91 dts_time:3.64 duration:0 duration_time:0 stream_index:0
pts:92 pts_time:3.68 dts:92 dts_time:3.68 duration:0 duration_time:0 stream_index:0
pts:93 pts_time:3.72 dts:93 dts_time:3.72 duration:0 duration_time:0 stream_index:0
pts:94 pts_time:3.76 dts:94 dts_time:3.76 duration:0 duration_time:0 stream_index:0
pts:95 pts_time:3.8 dts:95 dts_time:3.8 duration:0 duration_time:0 stream_index:0
pts:96 pts_time:3.84 dts:96 dts_time:3.84 duration:0 duration_time:0 stream_index:0
pts:97 pts_time:3.88 dts:97 dts_time:3.88 duration:0 duration_time:0 stream_index:0
pts:98 pts_time:3.92 dts:98 dts_time:3.92 duration:0 duration_time:0 stream_index:0
pts:99 pts_time:3.96 dts:99 dts_time:3.96 duration:0 duration_time:0 stream_index:0
pts:100 pts_time:4 dts:100 dts_time:4 duration:0 duration_time:0 stream_index:0
pts:101 pts_time:4.04 dts:101 dts_time:4.04 duration:0 duration_time:0 stream_index:0
pts:102 pts_time:4.08 dts:102 dts_time:4.08 duration:0 duration_time:0 stream_index:0
pts:103 pts_time:4.12 dts:103 dts_time:4.12 duration:0 duration_time:0 stream_index:0
pts:104 pts_time:4.16 dts:104 dts_time:4.16 duration:0 duration_time:0 stream_index:0
pts:105 pts_time:4.2 dts:105 dts_time:4.2 duration:0 duration_time:0 stream_index:0
pts:106 pts_time:4.24 dts:106 dts_time:4.24 duration:0 duration_time:0 stream_index:0
pts:107 pts_time:4.28 dts:107 dts_time:4.28 duration:0 duration_time:0 stream_index:0
pts:108 pts_time:4.32 dts:108 dts_time:4.32 duration:0 duration_time:0 stream_index:0
pts:109 pts_time:4.36 dts:109 dts_time:4.36 duration:0 duration_time:0 stream_index:0
pts:110 pts_time:4.4 dts:110 dts_time:4.4 duration:0 duration_time:0 stream_index:0
pts:111 pts_time:4.44 dts:111 dts_time:4.44 duration:0 duration_time:0 stream_index:0
pts:112 pts_time:4.48 dts:112 dts_time:4.48 duration:0 duration_time:0 stream_index:0
pts:113 pts_time:4.52 dts:113 dts_time:4.52 duration:0 duration_time:0 stream_index:0
pts:114 pts_time:4.56 dts:114 dts_time:4.56 duration:0 duration_time:0 stream_index:0
pts:115 pts_time:4.6 dts:115 dts_time:4.6 duration:0 duration_time:0 stream_index:0
pts:116 pts_time:4.64 dts:116 dts_time:4.64 duration:0 duration_time:0 stream_index:0
pts:117 pts_time:4.68 dts:117 dts_time:4.68 duration:0 duration_time:0 stream_index:0
pts:118 pts_time:4.72 dts:118 dts_time:4.72 duration:0 duration_time:0 stream_index:0
pts:119 pts_time:4.76 dts:119 dts_time:4.76 duration:0 duration_time:0 stream_index:0
pts:120 pts_time:4.8 dts:120 dts_time:4.8 duration:0 duration_time:0 stream_index:0
pts:121 pts_time:4.84 dts:121 dts_time:4.84 duration:0 duration_time:0 stream_index:0
pts:122 pts_time:4.88 dts:122 dts_time:4.88 duration:0 duration_time:0 stream_index:0
pts:123 pts_time:4.92 dts:123 dts_time:4.92 duration:0 duration_time:0 stream_index:0
pts:124 pts_time:4.96 dts:124 dts_time:4.96 duration:0 duration_time:0 stream_index:0
pts:125 pts_time:5 dts:125 dts_time:5 duration:0 duration_time:0 stream_index:0
pts:126 pts_time:5.04 dts:126 dts_time:5.04 duration:0 duration_time:0 stream_index:0
pts:127 pts_time:5.08 dts:127 dts_time:5.08 duration:0 duration_time:0 stream_index:0
pts:128 pts_time:5.12 dts:128 dts_time:5.12 duration:0 duration_time:0 stream_index:0
pts:129 pts_time:5.16 dts:129 dts_time:5.16 duration:0 duration_time:0 stream_index:0
pts:130 pts_time:5.2 dts:130 dts_time:5.2 duration:0 duration_time:0 stream_index:0
pts:131 pts_time:5.24 dts:131 dts_time:5.24 duration:0 duration_time:0 stream_index:0
pts:132 pts_time:5.28 dts:132 dts_time:5.28 duration:0 duration_time:0 stream_index:0
pts:133 pts_time:5.32 dts:133 dts_time:5.32 duration:0 duration_time:0 stream_index:0
pts:134 pts_time:5.36 dts:134 dts_time:5.36 duration:0 duration_time:0 stream_index:0
pts:135 pts_time:5.4 dts:135 dts_time:5.4 duration:0 duration_time:0 stream_index:0
pts:136 pts_time:5.44 dts:136 dts_time:5.44 duration:0 duration_time:0 stream_index:0
pts:137 pts_time:5.48 dts:137 dts_time:5.48 duration:0 duration_time:0 stream_index:0
pts:138 pts_time:5.52 dts:138 dts_time:5.52 duration:0 duration_time:0 stream_index:0
pts:139 pts_time:5.56 dts:139 dts_time:5.56 duration:0 duration_time:0 stream_index:0
pts:140 pts_time:5.6 dts:140 dts_time:5.6 duration:0 duration_time:0 stream_index:0
pts:141 pts_time:5.64 dts:141 dts_time:5.64 duration:0 duration_time:0 stream_index:0
pts:142 pts_time:5.68 dts:142 dts_time:5.68 duration:0 duration_time:0 stream_index:0
pts:143 pts_time:5.72 dts:143 dts_time:5.72 duration:0 duration_time:0 stream_index:0
pts:144 pts_time:5.76 dts:144 dts_time:5.76 duration:0 duration_time:0 stream_index:0
pts:145 pts_time:5.8 dts:145 dts_time:5.8 duration:0 duration_time:0 stream_index:0
pts:146 pts_time:5.84 dts:146 dts_time:5.84 duration:0 duration_time:0 stream_index:0
pts:147 pts_time:5.88 dts:147 dts_time:5.88 duration:0 duration_time:0 stream_index:0
pts:148 pts_time:5.92 dts:148 dts_time:5.92 duration:0 duration_time:0 stream_index:0
pts:149 pts_time:5.96 dts:149 dts_time:5.96 duration:0 duration_time:0 stream_index:0
pts:150 pts_time:6 dts:150 dts_time:6 duration:0 duration_time:0 stream_index:0
pts:151 pts_time:6.04 dts:151 dts_time:6.04 duration:0 duration_time:0 stream_index:0
pts:152 pts_time:6.08 dts:152 dts_time:6.08 duration:0 duration_time:0 stream_index:0
pts:153 pts_time:6.12 dts:153 dts_time:6.12 duration:0 duration_time:0 stream_index:0
pts:154 pts_time:6.16 dts:154 dts_time:6.16 duration:0 duration_time:0 stream_index:0
pts:155 pts_time:6.2 dts:155 dts_time:6.2 duration:0 duration_time:0 stream_index:0
pts:156 pts_time:6.24 dts:156 dts_time:6.24 duration:0 duration_time:0 stream_index:0
pts:157 pts_time:6.28 dts:157 dts_time:6.28 duration:0 duration_time:0 stream_index:0
pts:158 pts_time:6.32 dts:158 dts_time:6.32 duration:0 duration_time:0 stream_index:0
pts:159 pts_time:6.36 dts:159 dts_time:6.36 duration:0 duration_time:0 stream_index:0
pts:160 pts_time:6.4 dts:160 dts_time:6.4 duration:0 duration_time:0 stream_index:0
pts:161 pts_time:6.44 dts:161 dts_time:6.44 duration:0 duration_time:0 stream_index:0
pts:162 pts_time:6.48 dts:162 dts_time:6.48 duration:0 duration_time:0 stream_index:0
pts:163 pts_time:6.52 dts:163 dts_time:6.52 duration:0 duration_time:0 stream_index:0
pts:164 pts_time:6.56 dts:164 dts_time:6.56 duration:0 duration_time:0 stream_index:0
pts:165 pts_time:6.6 dts:165 dts_time:6.6 duration:0 duration_time:0 stream_index:0
pts:166 pts_time:6.64 dts:166 dts_time:6.64 duration:0 duration_time:0 stream_index:0
pts:167 pts_time:6.68 dts:167 dts_time:6.68 duration:0 duration_time:0 stream_index:0
pts:168 pts_time:6.72 dts:168 dts_time:6.72 duration:0 duration_time:0 stream_index:0
pts:169 pts_time:6.76 dts:169 dts_time:6.76 duration:0 duration_time:0 stream_index:0
pts:170 pts_time:6.8 dts:170 dts_time:6.8 duration:0 duration_time:0 stream_index:0
pts:171 pts_time:6.84 dts:171 dts_time:6.84 duration:0 duration_time:0 stream_index:0
pts:172 pts_time:6.88 dts:172 dts_time:6.88 duration:0 duration_time:0 stream_index:0
pts:173 pts_time:6.92 dts:173 dts_time:6.92 duration:0 duration_time:0 stream_index:0
pts:174 pts_time:6.96 dts:174 dts_time:6.96 duration:0 duration_time:0 stream_index:0
pts:175 pts_time:7 dts:175 dts_time:7 duration:0 duration_time:0 stream_index:0
pts:176 pts_time:7.04 dts:176 dts_time:7.04 duration:0 duration_time:0 stream_index:0
pts:177 pts_time:7.08 dts:177 dts_time:7.08 duration:0 duration_time:0 stream_index:0
pts:178 pts_time:7.12 dts:178 dts_time:7.12 duration:0 duration_time:0 stream_index:0
pts:179 pts_time:7.16 dts:179 dts_time:7.16 duration:0 duration_time:0 stream_index:0
pts:180 pts_time:7.2 dts:180 dts_time:7.2 duration:0 duration_time:0 stream_index:0
pts:181 pts_time:7.24 dts:181 dts_time:7.24 duration:0 duration_time:0 stream_index:0
pts:182 pts_time:7.28 dts:182 dts_time:7.28 duration:0 duration_time:0 stream_index:0
pts:183 pts_time:7.32 dts:183 dts_time:7.32 duration:0 duration_time:0 stream_index:0
pts:184 pts_time:7.36 dts:184 dts_time:7.36 duration:0 duration_time:0 stream_index:0
pts:185 pts_time:7.4 dts:185 dts_time:7.4 duration:0 duration_time:0 stream_index:0
pts:186 pts_time:7.44 dts:186 dts_time:7.44 duration:0 duration_time:0 stream_index:0
pts:187 pts_time:7.48 dts:187 dts_time:7.48 duration:0 duration_time:0 stream_index:0
pts:188 pts_time:7.52 dts:188 dts_time:7.52 duration:0 duration_time:0 stream_index:0
pts:189 pts_time:7.56 dts:189 dts_time:7.56 duration:0 duration_time:0 stream_index:0
pts:190 pts_time:7.6 dts:190 dts_time:7.6 duration:0 duration_time:0 stream_index:0
pts:191 pts_time:7.64 dts:191 dts_time:7.64 duration:0 duration_time:0 stream_index:0
pts:192 pts_time:7.68 dts:192 dts_time:7.68 duration:0 duration_time:0 stream_index:0
pts:193 pts_time:7.72 dts:193 dts_time:7.72 duration:0 duration_time:0 stream_index:0
pts:194 pts_time:7.76 dts:194 dts_time:7.76 duration:0 duration_time:0 stream_index:0
pts:195 pts_time:7.8 dts:195 dts_time:7.8 duration:0 duration_time:0 stream_index:0
pts:196 pts_time:7.84 dts:196 dts_time:7.84 duration:0 duration_time:0 stream_index:0
pts:197 pts_time:7.88 dts:197 dts_time:7.88 duration:0 duration_time:0 stream_index:0
pts:198 pts_time:7.92 dts:198 dts_time:7.92 duration:0 duration_time:0 stream_index:0
pts:199 pts_time:7.96 dts:199 dts_time:7.96 duration:0 duration_time:0 stream_index:0
pts:200 pts_time:8 dts:200 dts_time:8 duration:0 duration_time:0 stream_index:0
pts:201 pts_time:8.04 dts:201 dts_time:8.04 duration:0 duration_time:0 stream_index:0
pts:202 pts_time:8.08 dts:202 dts_time:8.08 duration:0 duration_time:0 stream_index:0
pts:203 pts_time:8.12 dts:203 dts_time:8.12 duration:0 duration_time:0 stream_index:0
pts:204 pts_time:8.16 dts:204 dts_time:8.16 duration:0 duration_time:0 stream_index:0
pts:205 pts_time:8.2 dts:205 dts_time:8.2 duration:0 duration_time:0 stream_index:0
pts:206 pts_time:8.24 dts:206 dts_time:8.24 duration:0 duration_time:0 stream_index:0
pts:207 pts_time:8.28 dts:207 dts_time:8.28 duration:0 duration_time:0 stream_index:0
pts:208 pts_time:8.32 dts:208 dts_time:8.32 duration:0 duration_time:0 stream_index:0
pts:209 pts_time:8.36 dts:209 dts_time:8.36 duration:0 duration_time:0 stream_index:0
pts:210 pts_time:8.4 dts:210 dts_time:8.4 duration:0 duration_time:0 stream_index:0
pts:211 pts_time:8.44 dts:211 dts_time:8.44 duration:0 duration_time:0 stream_index:0
pts:212 pts_time:8.48 dts:212 dts_time:8.48 duration:0 duration_time:0 stream_index:0
pts:213 pts_time:8.52 dts:213 dts_time:8.52 duration:0 duration_time:0 stream_index:0
pts:214 pts_time:8.56 dts:214 dts_time:8.56 duration:0 duration_time:0 stream_index:0
pts:215 pts_time:8.6 dts:215 dts_time:8.6 duration:0 duration_time:0 stream_index:0
pts:216 pts_time:8.64 dts:216 dts_time:8.64 duration:0 duration_time:0 stream_index:0
pts:217 pts_time:8.68 dts:217 dts_time:8.68 duration:0 duration_time:0 stream_index:0
pts:218 pts_time:8.72 dts:218 dts_time:8.72 duration:0 duration_time:0 stream_index:0
pts:219 pts_time:8.76 dts:219 dts_time:8.76 duration:0 duration_time:0 stream_index:0
pts:220 pts_time:8.8 dts:220 dts_time:8.8 duration:0 duration_time:0 stream_index:0
pts:221 pts_time:8.84 dts:221 dts_time:8.84 duration:0 duration_time:0 stream_index:0
pts:222 pts_time:8.88 dts:222 dts_time:8.88 duration:0 duration_time:0 stream_index:0
pts:223 pts_time:8.92 dts:223 dts_time:8.92 duration:0 duration_time:0 stream_index:0
pts:224 pts_time:8.96 dts:224 dts_time:8.96 duration:0 duration_time:0 stream_index:0
pts:225 pts_time:9 dts:225 dts_time:9 duration:0 duration_time:0 stream_index:0
pts:226 pts_time:9.04 dts:226 dts_time:9.04 duration:0 duration_time:0 stream_index:0
pts:227 pts_time:9.08 dts:227 dts_time:9.08 duration:0 duration_time:0 stream_index:0
pts:228 pts_time:9.12 dts:228 dts_time:9.12 duration:0 duration_time:0 stream_index:0
pts:229 pts_time:9.16 dts:229 dts_time:9.16 duration:0 duration_time:0 stream_index:0
pts:230 pts_time:9.2 dts:230 dts_time:9.2 duration:0 duration_time:0 stream_index:0
pts:231 pts_time:9.24 dts:231 dts_time:9.24 duration:0 duration_time:0 stream_index:0
pts:232 pts_time:9.28 dts:232 dts_time:9.28 duration:0 duration_time:0 stream_index:0
pts:233 pts_time:9.32 dts:233 dts_time:9.32 duration:0 duration_time:0 stream_index:0
pts:234 pts_time:9.36 dts:234 dts_time:9.36 duration:0 duration_time:0 stream_index:0
pts:235 pts_time:9.4 dts:235 dts_time:9.4 duration:0 duration_time:0 stream_index:0
pts:236 pts_time:9.44 dts:236 dts_time:9.44 duration:0 duration_time:0 stream_index:0
pts:237 pts_time:9.48 dts:237 dts_time:9.48 duration:0 duration_time:0 stream_index:0
pts:238 pts_time:9.52 dts:238 dts_time:9.52 duration:0 duration_time:0 stream_index:0
pts:239 pts_time:9.56 dts:239 dts_time:9.56 duration:0 duration_time:0 stream_index:0
pts:240 pts_time:9.6 dts:240 dts_time:9.6 duration:0 duration_time:0 stream_index:0
pts:241 pts_time:9.64 dts:241 dts_time:9.64 duration:0 duration_time:0 stream_index:0
pts:242 pts_time:9.68 dts:242 dts_time:9.68 duration:0 duration_time:0 stream_index:0
pts:243 pts_time:9.72 dts:243 dts_time:9.72 duration:0 duration_time:0 stream_index:0
pts:244 pts_time:9.76 dts:244 dts_time:9.76 duration:0 duration_time:0 stream_index:0
pts:245 pts_time:9.8 dts:245 dts_time:9.8 duration:0 duration_time:0 stream_index:0
pts:246 pts_time:9.84 dts:246 dts_time:9.84 duration:0 duration_time:0 stream_index:0
pts:247 pts_time:9.88 dts:247 dts_time:9.88 duration:0 duration_time:0 stream_index:0
pts:248 pts_time:9.92 dts:248 dts_time:9.92 duration:0 duration_time:0 stream_index:0
pts:249 pts_time:9.96 dts:249 dts_time:9.96 duration:0 duration_time:0 stream_index:0
pts:250 pts_time:10 dts:250 dts_time:10 duration:0 duration_time:0 stream_index:0
